<svg width="25" height="25" viewBox="0 0 25 25" fill="none" xmlns="http://www.w3.org/2000/svg">
<path d="M4.7832 12.2001C4.7832 11.8204 5.06536 11.5066 5.43143 11.457L5.5332 11.4501L18.7172 11.4507L13.9542 6.7072C13.6607 6.41494 13.6597 5.94007 13.9519 5.64654C14.2176 5.37971 14.6342 5.3546 14.9283 5.57182L15.0126 5.64426L21.0626 11.6683C21.1013 11.7068 21.1349 11.7485 21.1634 11.7925C21.1715 11.8058 21.1797 11.8193 21.1874 11.8332C21.1946 11.845 21.2011 11.8573 21.2071 11.8698C21.2156 11.8879 21.2239 11.9066 21.2314 11.9257C21.2375 11.9404 21.2426 11.9547 21.2472 11.9691C21.2528 11.987 21.2581 12.0061 21.2628 12.0255C21.2662 12.039 21.2689 12.052 21.2713 12.065C21.2746 12.0845 21.2775 12.1046 21.2795 12.1249C21.2812 12.1405 21.2823 12.1558 21.2829 12.1712C21.283 12.1805 21.2832 12.1903 21.2832 12.2001L21.2828 12.2292C21.2823 12.2439 21.2812 12.2586 21.2798 12.2733L21.2832 12.2001C21.2832 12.2475 21.2788 12.2938 21.2704 12.3387C21.2685 12.3494 21.2662 12.3604 21.2636 12.3714C21.2583 12.3939 21.2521 12.4157 21.245 12.437C21.2416 12.4476 21.2375 12.4589 21.2332 12.4701C21.2244 12.4927 21.2149 12.5142 21.2044 12.5352C21.1995 12.545 21.1941 12.5553 21.1884 12.5655C21.179 12.5822 21.1693 12.598 21.1591 12.6135C21.1519 12.6244 21.1439 12.6357 21.1356 12.6469L21.1291 12.6556C21.1089 12.682 21.087 12.707 21.0635 12.7305L21.0626 12.7312L15.0126 18.7562C14.7191 19.0484 14.2443 19.0475 13.952 18.754C13.6863 18.4871 13.6629 18.0704 13.8814 17.7773L13.9542 17.6933L18.7152 12.9507L5.5332 12.9501C5.11899 12.9501 4.7832 12.6143 4.7832 12.2001Z" fill="#2162F0"/>
</svg>
